<?xml version="1.0" ?><!DOCTYPE svg  PUBLIC '-//W3C//DTD SVG 1.1//EN'  'http://www.w3.org/Graphics/SVG/1.1/DTD/svg11.dtd'><svg enable-background="new 0 0 128 128" id="Слой_1" version="1.1" viewBox="0 0 128 128" xml:space="preserve" xmlns="http://www.w3.org/2000/svg" xmlns:xlink="http://www.w3.org/1999/xlink"><g><polygon fill="#F1F9FE" points="62.4,93.2 100.8,45.1 23.9,45.1  "/></g><g><polygon fill="#35B1C2" points="92.8,55.1 31.9,55.1 62.4,93.2  "/></g><g><path d="M62.4,124c-1.1,0-2-0.9-2-2V93.2c0-1.1,0.9-2,2-2s2,0.9,2,2V122C64.4,123.1,63.5,124,62.4,124z" fill="#62345B"/></g><g><path d="M81.6,124H43.2c-1.1,0-2-0.9-2-2s0.9-2,2-2h38.5c1.1,0,2,0.9,2,2S82.7,124,81.6,124z" fill="#62345B"/></g><g><path d="M62.4,95.2c-0.6,0-1.2-0.3-1.6-0.8L22.4,46.3c-0.5-0.6-0.6-1.4-0.2-2.1s1-1.1,1.8-1.1h76.9   c0.8,0,1.5,0.4,1.8,1.1s0.2,1.5-0.2,2.1L63.9,94.4C63.6,94.9,63,95.2,62.4,95.2z M28.1,47.1L62.4,90l34.3-42.9H28.1z" fill="#62345B"/></g><g><g><path d="M105.1,39.1l-18.3-20L59.8,18c-2.4,5.2,5.7,14.2,18.3,20S102.7,44.3,105.1,39.1z" fill="#F69286"/></g><g><path d="M96.4,44.7C96.4,44.7,96.4,44.7,96.4,44.7c-5.5,0-12.5-1.8-19.2-4.9C63.3,33.3,55,23.6,58,17.2    c0.3-0.7,1.1-1.2,1.9-1.2l27.1,1.1c0.5,0,1,0.3,1.4,0.6l18.3,20c0.5,0.6,0.7,1.5,0.3,2.2C105.5,43,101.8,44.7,96.4,44.7z     M61.4,20.1c0,4,6.8,11.1,17.5,16.1c6.2,2.9,12.6,4.5,17.5,4.5h0c2.8,0,4.9-0.5,6.1-1.5L85.9,21.1L61.4,20.1z" fill="#62345B"/></g><g opacity="0.3"><g><path d="M86.2,20.3l5.7,22.1c6.6,1,11.7,0,13.2-3.2L86.2,20.3z" fill="#62345B"/></g></g></g><g opacity="0.5"><path d="M64.4,78.2c-0.2,0-0.5,0-0.7-0.1c-1-0.4-1.5-1.6-1.1-2.6l12.2-31.1c0.4-1,1.6-1.5,2.6-1.1   c1,0.4,1.5,1.6,1.1,2.6L66.3,76.9C66,77.7,65.2,78.2,64.4,78.2z" fill="#62345B"/></g><g><path d="M76.7,47.1c-0.2,0-0.5,0-0.7-0.1c-1-0.4-1.5-1.6-1.1-2.6l2.6-6.5c0.4-1,1.6-1.5,2.6-1.1   c1,0.4,1.5,1.6,1.1,2.6l-2.6,6.5C78.2,46.6,77.5,47.1,76.7,47.1z" fill="#62345B"/></g></svg>