<?xml version="1.0" ?><svg id="Layer_1" style="enable-background:new 0 0 512 512;" version="1.1" viewBox="0 0 512 512" xml:space="preserve" xmlns="http://www.w3.org/2000/svg" xmlns:xlink="http://www.w3.org/1999/xlink"><style type="text/css">
	.st0{fill:#55A47E;}
</style><g id="XMLID_429_"><path class="st0" d="M256,70.9c-94.5,0-181.5,33-250,88L37.1,190c60.4-47.2,136.5-75.4,218.9-75.4   s158.5,28.2,218.9,75.4l31.1-31.1C437.5,103.9,350.5,70.9,256,70.9z" id="XMLID_433_"/><path class="st0" d="M73.3,226.2l31.3,31.3C147.4,227,199.6,209,256,209s108.6,18,151.4,48.5l31.3-31.3   c-51-38.2-114.2-60.8-182.7-60.8S124.3,188,73.3,226.2z" id="XMLID_432_"/><path class="st0" d="M141.1,294l31.7,31.7c24.5-14.1,52.9-22.2,83.1-22.2s58.6,8.1,83.1,22.2l31.7-31.7   c-33.1-21.6-72.5-34.2-114.9-34.2S174.2,272.4,141.1,294z" id="XMLID_431_"/><circle class="st0" cx="256" cy="396.9" id="XMLID_430_" r="44.2"/></g></svg>